# xmcd
#
# Track frame offsets:
#	150
#	15752
#	29175
#	44702
#	57642
#	71627
#	85655
#	96525
#	115505
#	129372
#	148277
#	165302
#	179852
#	194102
#	210377
#	227102
#	241950
#
# Disc length: 3490 seconds
#
# Revision: 1
# Processed by: cddbd v1.4PL0 Copyright (c) Steve Scherf et al.
# Submitted via: audiograbber 1.81.02
#
DISCID=fd0da011
DTITLE=Wim Pols and Calyx - Two doors down
DYEAR=2002
DGENRE=Country
TTITLE0=Two doors down
TTITLE1=He will be there
TTITLE2=On the fingers of one hand
TTITLE3=A cowboy's life
TTITLE4=What to do with a buckaroo
TTITLE5=Your love will lead me
TTITLE6=Always back home to you
TTITLE7=Where have the butterflies flown
TTITLE8=The way it used to be
TTITLE9=Strong enough to cry
TTITLE10=At the assembly line
TTITLE11=Why is almost every country song a sad song
TTITLE12=Keep on loving them
TTITLE13=He's rolling
TTITLE14=I'm sure
TTITLE15=In my mind you are near
TTITLE16=Family reunion
EXTD=
EXTT0=
EXTT1=
EXTT2=
EXTT3=
EXTT4=
EXTT5=
EXTT6=
EXTT7=
EXTT8=
EXTT9=
EXTT10=
EXTT11=
EXTT12=
EXTT13=
EXTT14=
EXTT15=
EXTT16=
PLAYORDER=
